<?xml version="1.0" encoding="UTF-8"?>
<svg id="_图层_2" data-name="图层 2" xmlns="http://www.w3.org/2000/svg" xmlns:xlink="http://www.w3.org/1999/xlink" viewBox="0 0 700 341.83">
  <defs>
    <style>
      .cls-1 {
        fill: url(#_未命名的渐变_6-2);
      }

      .cls-2 {
        fill: url(#_未命名的渐变_6);
      }
    </style>
    <linearGradient id="_未命名的渐变_6" data-name="未命名的渐变 6" x1="22.53" y1="255.79" x2="583.96" y2="-68.36" gradientUnits="userSpaceOnUse">
      <stop offset="0" stop-color="#3b82f6"/>
      <stop offset=".3" stop-color="#6060f0"/>
      <stop offset=".57" stop-color="#7c47ed"/>
      <stop offset=".82" stop-color="#8d38ea"/>
      <stop offset="1" stop-color="#9333ea"/>
    </linearGradient>
    <linearGradient id="_未命名的渐变_6-2" data-name="未命名的渐变 6" x1="423.25" y1="322.4" x2="716.26" y2="153.23" xlink:href="#_未命名的渐变_6"/>
  </defs>
  <g id="_图层_1-2" data-name="图层 1">
    <g>
      <path class="cls-2" d="M493.97,101.87l7.85,36.94c1.03,6.94,10.32,13.78,23.07,6.16l130.27-90.02C623.97,21.68,578.3,0,529.09,0c-26.5,0-48.57,4.73-69.38,14.81-17.31,8.39-32.67,20.32-45.53,34.62-8.63,9.6-19.08,21.63-27.16,31.03-41.08,47.78-133.76,157.46-215.31,144.77v31.61c0,1.47-1.73,2.26-2.84,1.29l-85.25-74.22c-2.85-2.49-2.88-6.91-.05-9.43l85.05-75.56c1.1-.98,2.84-.2,2.85,1.27l.23,33.46c68.14,19.37,139.11-55.07,139.11-55.07,0,0-10.03-11.11-17.7-20.43C261.8,22.59,222.02,0,170.91,0,76.52,0,0,76.52,0,170.91s76.52,170.91,170.91,170.91c34.1,0,59.93-8.55,87.64-25.89,13.41-8.39,24.94-17.54,36.16-27.31,15.26-13.28,29.75-27.41,43.61-42.13L476.59,97.11c5.03-5.28,16.29-2.45,17.38,4.77Z"/>
      <path class="cls-1" d="M699.99,168.6c-.44-33.3-10.41-64.3-27.3-90.4,0,0-157.52,163.3-175.36,173.92-5.01,2.98-11.49,.29-12.94-5.35l-12.62-44.33c-.94-3.64-3.97-6.05-7.37-6.48-3.4-.87-7.19-.36-9.67,2.04l-67.63,61.78c30.74,47.72,83.03,82.18,142.38,82.05,94.09-.2,171.77-79.14,170.52-173.23Z"/>
    </g>
  </g>
</svg>